<svg width="30" height="25" viewBox="0 0 30 25" fill="none" xmlns="http://www.w3.org/2000/svg">
<path d="M14.9906 24.5263C10.9994 24.5263 7.00812 24.5072 2.99813 24.5455C1.42411 24.5455 0 23.1095 0 21.4438C0.0187383 15.317 0.0374766 9.19019 0 3.08254C0 1.76145 1.23673 0 3.01686 0C10.9994 0.0382924 19.0006 0.0191462 26.9831 0C28.5759 0 30 1.43597 30 3.08254C29.9813 9.20933 29.9813 15.3361 30 21.4438C30 23.0521 28.6134 24.5263 26.9831 24.5263C22.9919 24.5072 19.0006 24.5263 14.9906 24.5263ZM3.01686 6.06935C3.14803 6.20338 3.2792 6.41398 3.46658 6.50972C4.38476 6.91179 5.15303 7.56276 6.01499 8.07971C7.02686 8.69238 8.00125 9.34336 8.99438 9.99433C9.68769 10.4347 10.381 10.8942 11.0743 11.3346C12.386 12.1579 13.7164 13.0003 15.0281 13.8236C16.2086 13.0577 17.3891 12.2727 18.5884 11.5452C19.7689 10.8368 20.9119 10.0709 22.0924 9.34336C23.5728 8.42434 24.9781 7.42873 26.4772 6.54801C26.7021 6.41398 26.9644 6.16508 26.9644 5.93533C27.0206 4.99716 26.9831 4.03985 26.9831 3.10169C22.9357 5.68643 18.9444 8.23288 14.9906 10.7602C10.9806 8.19458 7.00812 5.66728 2.99813 3.10169C3.01686 4.11644 3.01686 5.07375 3.01686 6.06935Z" fill="#E5E5E5"/>
</svg>
