<svg width="36" height="35" viewBox="0 0 36 35" fill="none" xmlns="http://www.w3.org/2000/svg">
<rect width="36" height="34.1053" rx="5" fill="#FFA800" fill-opacity="0.79"/>
<path d="M27.5451 21.1613C27.6816 21.5772 27.8554 22.1645 28.054 22.7395C28.3642 23.6815 27.7313 24.6235 26.7261 24.6235C21.4765 24.6357 16.2146 24.6357 10.9651 24.6113C9.1904 24.599 7.93697 23.7304 7.65153 22.2256C7.51502 21.5283 7.58948 20.7575 7.72599 20.0602C8.17276 17.6868 8.69399 15.3256 9.20281 12.9522C9.28968 12.5363 9.42619 12.1203 9.61235 11.7411C9.99706 10.9581 10.5679 10.432 11.5235 10.2852C12.3302 10.1629 13.112 9.85704 13.8939 9.60013C14.3903 9.42885 14.8495 9.40438 15.3086 9.698C16.1525 10.2485 17.0709 10.3831 18.0761 10.3586C20.31 10.3097 22.5438 10.3464 24.7777 10.3586C25.5719 10.3586 25.5719 10.3709 25.7953 11.1049C26.0807 12.0836 26.3537 13.0624 26.6516 14.0411C26.7261 14.2613 26.8874 14.457 27.0239 14.6528C27.3342 15.081 27.7437 15.448 27.9423 15.9129C28.4759 17.1363 28.4883 18.4576 28.3394 19.7666C28.2897 20.1948 27.8926 20.574 27.5451 21.1613ZM8.63194 19.1794C9.72404 18.3352 10.8782 18.274 12.0696 18.2863C16.7855 18.2985 21.5013 18.2863 26.2048 18.2985C26.664 18.2985 27.1356 18.3597 27.7313 18.3964C27.6196 17.7235 27.5575 17.0996 27.3962 16.5001C27.0487 15.2033 26.1924 14.7017 24.8645 15.032C23.9462 15.2645 23.0154 15.5092 22.1715 15.9006C19.6522 17.0629 17.0337 16.8794 14.4027 16.549C14.1173 16.5123 14.0056 16.3655 14.0428 16.0964C14.08 15.7905 14.1173 15.4969 14.1421 15.1911C14.2165 14.1145 14.3034 13.0379 14.3655 11.9613C14.3903 11.423 14.3655 10.8725 14.3655 10.2485C14.1049 10.3342 13.8939 10.3953 13.6829 10.4565C12.9631 10.6523 12.2557 10.8847 11.5359 11.0315C10.9527 11.1416 10.5431 11.4352 10.3197 11.9491C10.146 12.3405 10.0095 12.7443 9.91019 13.1602C9.72404 13.9065 9.58753 14.665 9.42619 15.4235C9.17799 16.6347 8.91737 17.8336 8.63194 19.1794ZM18.6594 23.9139C21.2035 23.9139 23.7476 23.9139 26.2917 23.9139C26.453 23.9139 26.6268 23.9262 26.7881 23.9017C27.148 23.8527 27.4459 23.498 27.3962 23.1676C27.3466 22.8251 27.1356 22.6293 26.7633 22.6416C26.602 22.6416 26.4282 22.6416 26.2669 22.6416C21.4889 22.6538 16.711 22.666 11.9331 22.666C11.6476 22.666 11.3498 22.6905 11.0643 22.6538C10.4687 22.5926 10.0343 22.0788 10.0467 21.4671C10.0591 20.8799 10.4314 20.4884 11.0519 20.4517C11.6849 20.415 12.3302 20.3783 12.9755 20.3661C17.5425 20.3171 22.1094 20.2804 26.6764 20.2315C26.7757 20.2315 26.8874 20.2315 26.9867 20.2192C27.3466 20.1825 27.6444 19.9012 27.6568 19.6075C27.6568 19.2161 27.3714 19.0937 27.0611 19.0081C26.9246 18.9714 26.7757 18.9714 26.6268 18.9714C21.4393 18.9714 16.2394 18.9591 11.0519 18.9958C10.5183 18.9958 9.94742 19.1916 9.47583 19.4485C7.99902 20.2682 7.87491 22.4091 9.20281 23.3634C9.74886 23.7549 10.4066 23.8772 11.0768 23.8772C13.6084 23.9139 16.1401 23.9139 18.6594 23.9139ZM15.1473 10.4687C15.0356 12.3283 14.9239 14.09 14.8122 15.815C18.163 16.549 21.1911 15.7905 24.0827 14.3714C21.0173 13.4538 18.2002 11.8512 15.1473 10.4687ZM26.7136 20.9655C26.453 20.9655 26.2296 20.9655 25.9939 20.9655C24.1323 20.99 22.2708 21.0389 20.4092 21.0512C17.5425 21.0756 14.6757 21.0756 11.7965 21.1001C11.5483 21.1001 11.2877 21.1001 11.0643 21.1857C10.9402 21.2347 10.7789 21.4426 10.7913 21.565C10.8037 21.6996 10.9651 21.8708 11.1016 21.9442C11.2133 22.0054 11.387 21.9687 11.5235 21.9687C16.5248 21.9565 21.5386 21.9565 26.5399 21.9442C26.6888 21.9442 26.8377 21.9075 27.0115 21.8953C26.9494 21.6873 26.9122 21.5283 26.8626 21.3692C26.8253 21.2469 26.7757 21.1368 26.7136 20.9655ZM18.3243 11.0682C18.3119 11.1049 18.3119 11.1538 18.2995 11.1905C20.7319 12.3528 23.1519 13.5395 25.9194 14.1145C25.6464 13.148 25.4106 12.2427 25.1127 11.3618C25.0631 11.215 24.7652 11.0804 24.5791 11.0804C22.4942 11.0682 20.4092 11.0682 18.3243 11.0682Z" fill="#F4F2F6"/>
</svg>
