<svg width="36" height="35" viewBox="0 0 36 35" fill="none" xmlns="http://www.w3.org/2000/svg">
<rect x="0.5" y="0.5" width="35" height="33.1053" rx="4.5" stroke="#292929"/>
<path d="M16.0993 18.641C15.7147 18.8691 15.3588 19.0788 15.003 19.2885C14.3847 19.6527 13.7737 20.0205 13.1518 20.3774C13.0296 20.4473 12.9865 20.5319 12.9793 20.6643C12.9326 21.3964 12.8787 22.1321 12.8283 22.8642C12.7996 23.2946 12.4941 23.5889 12.0879 23.5742C11.6925 23.5595 11.4013 23.2284 11.4157 22.798C11.4301 22.4632 11.4553 22.1248 11.4768 21.79C11.484 21.6576 11.4912 21.5251 11.4984 21.3633C11.3906 21.4258 11.3079 21.47 11.2252 21.5178C10.6825 21.8378 10.1397 22.1616 9.59333 22.4816C9.31296 22.6435 8.98946 22.603 8.75942 22.3897C8.54734 22.1947 8.45389 21.8489 8.59048 21.584C8.66596 21.4369 8.79536 21.2934 8.93554 21.2051C9.49269 20.8556 10.0606 20.5319 10.6249 20.1971C10.6753 20.1677 10.7256 20.1346 10.7939 20.0941C10.3697 19.8807 9.96715 19.6821 9.56457 19.4798C9.21232 19.2995 9.05776 18.9537 9.1584 18.5969C9.28061 18.1738 9.73351 17.9604 10.1397 18.1554C10.8011 18.4718 11.4553 18.8029 12.1095 19.134C12.2353 19.2002 12.3323 19.1965 12.4545 19.1229C13.3747 18.5711 14.2985 18.0303 15.2187 17.4859C15.269 17.4564 15.3193 17.4233 15.3948 17.3755C15.1935 17.2578 15.0102 17.1474 14.8269 17.0407C14.0397 16.5735 13.2489 16.1137 12.4653 15.6391C12.3287 15.5545 12.2245 15.5619 12.0879 15.6318C11.4517 15.9592 10.8119 16.2756 10.1684 16.5883C9.78743 16.7759 9.37766 16.6398 9.20153 16.2756C9.01822 15.904 9.16559 15.4846 9.5502 15.286C9.90245 15.102 10.2583 14.9291 10.6106 14.7489C10.6645 14.7231 10.7148 14.6937 10.7867 14.6532C10.2439 14.3332 9.72273 14.0242 9.20153 13.7151C9.10448 13.6563 9.00384 13.6011 8.90679 13.5386C8.54734 13.3178 8.42873 12.8948 8.62283 12.5416C8.82052 12.1848 9.24826 12.0707 9.61849 12.2841C10.2008 12.6225 10.7795 12.9684 11.3582 13.3105C11.3942 13.3325 11.4301 13.3509 11.4984 13.3914C11.4768 13.0346 11.4589 12.7108 11.4409 12.3834C11.4301 12.2289 11.4157 12.0781 11.4121 11.9236C11.4049 11.5189 11.6925 11.1952 12.0735 11.1768C12.4725 11.1584 12.7924 11.4453 12.8212 11.8574C12.8751 12.6078 12.929 13.362 12.9757 14.1124C12.9829 14.2375 13.0296 14.3074 13.1375 14.3663C14.0684 14.9107 14.9922 15.4589 15.9196 16.007C15.9699 16.0364 16.0202 16.0659 16.0957 16.1063C16.0993 16.0254 16.1065 15.9665 16.1065 15.9114C16.1065 14.8151 16.1029 13.7151 16.1101 12.6189C16.1101 12.4864 16.067 12.4092 15.9591 12.3356C15.3517 11.9199 14.7442 11.5042 14.1439 11.0811C13.6874 10.7611 13.7234 10.0879 14.205 9.83405C14.4602 9.70161 14.7154 9.72368 14.9527 9.88555C15.2762 10.1063 15.5997 10.327 15.9232 10.5477C15.9699 10.5808 16.0202 10.6139 16.1065 10.6691C16.1065 10.5735 16.1065 10.5073 16.1065 10.4447C16.1065 9.78254 16.1029 9.12037 16.1065 8.45819C16.1101 7.95788 16.4803 7.62679 16.9332 7.70404C17.2495 7.75555 17.4904 8.02778 17.5155 8.35886C17.5191 8.40669 17.5155 8.45819 17.5155 8.50601C17.5155 14.4178 17.5155 20.3259 17.5155 26.2376C17.5155 26.6349 17.3466 26.9145 17.0375 27.0175C16.5666 27.1794 16.1065 26.8373 16.1029 26.3149C16.0993 25.6454 16.1029 24.9795 16.1029 24.31C16.1029 24.2438 16.1029 24.1812 16.1029 24.0708C15.8513 24.2438 15.632 24.3909 15.4164 24.5381C15.2618 24.6447 15.1108 24.7514 14.9527 24.8544C14.5896 25.0972 14.1619 25.0236 13.939 24.6815C13.709 24.332 13.806 23.8943 14.1727 23.6404C14.7729 23.2247 15.3732 22.8127 15.9699 22.3933C16.031 22.3492 16.0957 22.2535 16.0957 22.1836C16.1029 21.0432 16.1029 19.9028 16.0993 18.7624C16.1101 18.7366 16.1065 18.7072 16.0993 18.641Z" fill="#292929"/>
<path d="M27.1595 12.619C26.9474 12.8765 26.7137 13.1156 26.5268 13.3879C26.2536 13.7925 25.9697 14.2045 25.7648 14.6497C25.4161 15.4038 25.6102 16.1101 26.2501 16.6289C26.8324 17.1034 27.5153 17.3609 28.2198 17.5706C28.3025 17.5964 28.3888 17.6184 28.4211 17.6295C27.8496 17.887 27.2529 18.1482 26.6634 18.4278C26.4873 18.5124 26.3255 18.6411 26.1746 18.7699C25.621 19.2371 25.4485 19.8478 25.6749 20.5504C25.8619 21.139 26.2141 21.6246 26.5987 22.0881C26.7641 22.2868 26.9438 22.4744 27.1487 22.6988C26.8935 22.6473 26.6778 22.5958 26.4585 22.559C25.8906 22.4634 25.3227 22.3861 24.744 22.456C23.9208 22.559 23.3925 23.0777 23.2774 23.9165C23.1696 24.7111 23.3062 25.48 23.5003 26.2415C23.5111 26.2819 23.5183 26.3224 23.5398 26.4033C23.3421 26.2231 23.1768 26.0649 23.0043 25.9177C22.5657 25.5425 22.1128 25.193 21.588 24.9576C20.7649 24.5897 20.0496 24.792 19.5212 25.5388C19.1402 26.0759 18.9066 26.6829 18.7197 27.312C18.7017 27.3672 18.6873 27.426 18.6514 27.4738C18.6514 26.2562 18.6514 25.0422 18.6514 23.8098C20.5744 23.7436 22.156 22.9674 23.3565 21.4296C24.2587 20.2708 24.6901 18.9354 24.6505 17.4529C24.5643 14.0684 21.7965 11.4197 18.6586 11.4381C18.6586 10.1653 18.6586 8.89242 18.6586 7.5791C18.6873 7.65636 18.7053 7.7005 18.7161 7.74465C18.9389 8.46568 19.2013 9.16833 19.6434 9.78268C20.1574 10.4927 20.844 10.6877 21.642 10.3455C22.289 10.0696 22.8245 9.63185 23.3206 9.13522C23.3889 9.06532 23.4572 8.9991 23.5255 8.92921C23.5326 8.92185 23.547 8.92185 23.5614 8.91817C23.4967 9.28605 23.4068 9.65024 23.3781 10.0181C23.3421 10.4927 23.3134 10.9746 23.3601 11.4455C23.4392 12.2438 23.9748 12.7514 24.7584 12.8618C25.5024 12.9648 26.2249 12.8434 26.9438 12.6558C27.0085 12.6374 27.0696 12.6227 27.1343 12.608C27.1379 12.608 27.1451 12.6116 27.1595 12.619Z" fill="#292929"/>
<path d="M18.6548 22.5333C18.6548 19.2666 18.6548 15.9961 18.6548 12.6963C20.3622 12.7772 21.7424 13.4799 22.6518 14.955C23.7517 16.7392 23.7266 18.5749 22.6231 20.3555C21.5591 22.0624 19.7008 22.6069 18.6548 22.5333Z" fill="#292929"/>
</svg>
