<svg width="30" height="30" viewBox="0 0 30 30" fill="none" xmlns="http://www.w3.org/2000/svg">
<path d="M19.461 22.2222C19.7849 22.9136 20.7325 23.152 20.7685 24.0698C16.906 24.0698 13.0914 24.0698 9.22885 24.0698C9.28883 23.1639 10.2125 22.9136 10.5604 22.2342C10.2485 22.1626 9.96058 22.115 9.68468 22.0315C8.31719 21.6143 7.34556 20.3509 7.34556 18.9086C7.32157 15.8334 7.32157 12.782 7.33356 9.71865C7.33356 8.30023 7.99332 7.22747 9.32481 6.76261C10.4044 6.3931 11.556 6.16663 12.6955 6.05935C14.9267 5.85672 17.1699 5.85672 19.377 6.32158C19.9408 6.44078 20.4926 6.64341 20.9964 6.89372C22.076 7.4301 22.6398 8.3479 22.6518 9.52794C22.6758 12.6866 22.6878 15.8453 22.6518 19.004C22.6398 20.4582 21.5602 21.6978 20.1447 22.0554C19.9288 22.1269 19.7009 22.1626 19.461 22.2222ZM14.0151 9.82593C12.4077 9.82593 10.8362 9.82593 9.28883 9.82593C9.28883 11.4231 9.28883 12.9727 9.28883 14.5222C10.8842 14.5222 12.4316 14.5222 14.0151 14.5222C14.0151 12.9488 14.0151 11.4112 14.0151 9.82593ZM20.7325 9.82593C19.1251 9.82593 17.5537 9.82593 16.0063 9.82593C16.0063 11.4231 16.0063 12.9727 16.0063 14.5222C17.6017 14.5222 19.1491 14.5222 20.7325 14.5222C20.7325 12.9488 20.7325 11.4112 20.7325 9.82593ZM12.1198 18.8609C12.1318 18.0742 11.472 17.4187 10.6803 17.4187C9.91259 17.4187 9.26484 18.0385 9.24085 18.8013C9.21686 19.588 9.85262 20.2555 10.6443 20.2794C11.448 20.2913 12.1078 19.6476 12.1198 18.8609ZM20.7565 18.8371C20.7565 18.0504 20.0848 17.4068 19.2931 17.4187C18.5254 17.4306 17.8896 18.0623 17.8776 18.8252C17.8656 19.6119 18.5134 20.2674 19.3051 20.2794C20.1088 20.2794 20.7565 19.6238 20.7565 18.8371Z" fill="#FFA800"/>
<circle cx="15" cy="15" r="14" stroke="#FFA800" stroke-width="2"/>
</svg>
