<svg width="31" height="50" viewBox="0 0 31 50" fill="none" xmlns="http://www.w3.org/2000/svg">
<path d="M0 19.0289C0.307988 18.6378 0.559979 18.1523 0.951964 17.8691C2.23992 16.952 3.90585 17.5859 4.28384 19.1368C4.61983 20.5394 4.89982 21.9554 5.19381 23.3714C5.71179 25.8124 6.21577 28.2669 6.74775 30.7079C7.44772 33.8771 9.58964 35.5494 12.9635 35.5629C15.3714 35.5764 17.7653 35.5494 20.1732 35.5764C21.5872 35.5898 22.3852 36.2102 22.6092 37.397C22.8331 38.6782 21.9232 39.8649 20.5792 39.8784C17.4573 39.9054 14.3355 39.9863 11.2136 39.8515C7.37772 39.6896 3.80786 36.6418 2.81389 32.7847C2.16992 30.2628 1.69394 27.7005 1.13396 25.1651C0.769971 23.4793 0.377986 21.807 0 20.1213C0 19.7572 0 19.393 0 19.0289Z" fill="#C4C4C4"/>
<path d="M9.87021 0C10.9762 0.229264 11.9981 0.579903 12.8801 1.30815C14.714 2.8186 15.274 5.58325 14.126 7.63314C12.8801 9.87183 10.2622 10.9777 7.86828 10.2899C5.48837 9.60211 4.06042 7.94332 3.87843 5.44839C3.73844 3.53336 4.8024 1.51044 7.01431 0.512472C7.51829 0.283208 8.07827 0.175319 8.62425 0C9.03024 0 9.45022 0 9.87021 0Z" fill="#C4C4C4"/>
<path d="M24.667 34.5108C24.331 34.5108 24.0931 34.5108 23.8691 34.5108C20.2852 34.5108 16.7013 34.5243 13.1035 34.5108C10.3596 34.4973 8.51164 33.0408 7.97966 30.4515C7.05569 26.055 6.14572 21.6586 5.22176 17.2621C4.28379 12.7982 8.44164 10.6404 11.4235 11.571C13.3275 12.1643 14.3074 13.5399 14.6994 15.3336C15.4834 18.9344 16.2253 22.5352 16.9533 26.1359C17.0793 26.7833 17.2893 27.026 18.0173 27.0125C20.9292 26.9856 23.8411 26.9856 26.753 27.08C28.7269 27.1339 30.2528 28.6713 30.3928 30.5729C30.4208 30.8965 30.4348 31.2202 30.4348 31.5439C30.4348 36.5472 30.4348 41.5371 30.4348 46.5404C30.4348 46.9855 30.4348 47.444 30.3368 47.8755C30.0288 49.2376 28.7969 50.0873 27.3549 49.9929C25.941 49.8985 24.835 48.86 24.695 47.4845C24.667 47.1608 24.667 46.8371 24.667 46.5135C24.667 42.7778 24.667 39.0287 24.667 35.293C24.667 35.0637 24.667 34.821 24.667 34.5108Z" fill="#C4C4C4"/>
</svg>
