<svg width="155" height="155" viewBox="0 0 155 155" fill="none" xmlns="http://www.w3.org/2000/svg">
<ellipse cx="77.4223" cy="77.5" rx="77.4223" ry="77.5" fill="white"/>
<path fill-rule="evenodd" clip-rule="evenodd" d="M142 76C142 111.898 112.898 141 77 141C41.1016 141 12 111.898 12 76C12 40.1016 41.1016 11 77 11C112.898 11 142 40.1016 142 76ZM96.5527 108.443C97.9355 107.262 100.412 106.926 100.412 106.926L100.482 79.7039C97.4648 79.2205 95.5312 77.635 95.1914 74.3679L42.6035 74.0239C42.3867 74.4028 42.4824 74.9448 42.2734 75.4448C41.8105 76.4788 41.3496 77.3259 40.7773 77.9792C40.1719 78.6714 39.4414 79.1462 38.4551 79.395C38.2969 79.4368 38.0938 79.4773 37.8809 79.5139C37.6719 79.5503 37.4531 79.583 37.2617 79.6099C36.9102 79.6592 36.6504 79.6892 36.709 79.6855L36.6289 106.787C38.3848 106.617 39.5 106.914 40.6738 108.059C41.6445 108.913 42.1133 110.467 41.5391 111.903L95.1055 112.308C95.3086 110.773 95.3965 109.367 96.5527 108.443ZM49.7715 93.7969L49.707 90.9998L59.623 90.8135L59.6875 93.6104L49.7715 93.7969ZM49.7559 88.0742L49.6895 85.2771L71.1074 84.9285L71.1719 87.7253L49.7559 88.0742ZM82.5801 79.7498C82.5625 79.7061 82.5469 79.6602 82.5332 79.6118C82.4727 79.3923 82.4492 79.1255 82.4531 78.8083L82.4414 77.5598L82.4316 76.4058L82.4219 75.583L84.8555 75.5544L84.8398 78.9653C84.8477 80 83.918 80.6663 83.1016 80.2905C82.8457 80.1819 82.6797 80.0039 82.5801 79.7498ZM82.4824 87.2146C82.4355 87.031 82.416 86.8125 82.4219 86.5432C82.4199 86.3931 82.4121 86.2229 82.4043 86.0415C82.3574 84.9714 82.291 83.5068 83.4336 83.4363C84.2812 83.3838 84.8008 83.8389 84.791 84.6311L84.752 86.7646C84.7949 87.4204 84.4102 87.905 83.9141 88.0532C83.5859 88.1516 83.207 88.1018 82.875 87.855C82.6816 87.6846 82.5527 87.4883 82.4824 87.2146ZM83.0371 95.7605C82.3496 95.4985 82.3652 94.8279 82.3828 94.157C82.4062 93.6074 82.3652 93.001 82.4473 92.3872C82.4551 92.0396 82.5957 91.7166 82.8242 91.4885C83.0352 91.2766 83.3203 91.147 83.6445 91.1562C84.3145 91.1758 84.8965 91.6877 84.8809 92.3586L84.9062 94.5491C84.8848 94.928 84.7324 95.26 84.502 95.4995C84.1367 95.8782 83.5781 96.0256 83.0371 95.7605ZM83.8301 103.079L83.4668 103.102C82.916 103.075 82.5859 102.669 82.5527 102.184L82.5762 99.8079C82.6016 99.2583 83.0059 98.929 83.4902 98.8989L83.8555 98.8765C84.1953 98.8931 84.5254 99.0747 84.7207 99.3418C84.8398 99.5049 84.9082 99.6997 84.8984 99.908L84.9219 102.098C84.8984 102.648 84.4375 103.042 83.8301 103.079ZM82.4004 110.84C82.4004 110.84 82.2129 108.05 82.4961 106.815C82.6016 106.565 82.707 106.315 82.877 106.122C83.6211 105.406 84.8828 106.059 84.8906 107.094L84.8984 110.868L82.4004 110.84ZM99.4961 68.5615L99.8203 71.5859C99.9746 72.9768 100.387 73.6821 102.166 73.8767L105.119 74.3032L105.104 80.4541L114.914 80.5178C115.031 79.7305 115.111 78.9456 115.357 78.2451C115.555 77.6877 115.857 77.1838 116.369 76.7744C117.752 75.593 120.227 75.2576 120.227 75.2576L120.428 48.1489C117.41 47.6655 115.477 46.0801 115.137 42.813L62.4844 42.4121C62.375 42.6016 62.3457 42.8318 62.3164 43.0771V43.094C62.2871 43.3342 62.2559 43.5886 62.1523 43.833C61.1992 45.9622 60.252 47.2993 58.3359 47.7832C57.7363 47.9419 56.5312 48.1382 56.5879 48.0737L56.5332 68.2319L99.4961 68.5615ZM69.6523 62.1848L69.5859 59.3879L79.502 59.2017L79.5684 61.9985L69.6523 62.1848ZM103.428 67.2227L103.791 67.2002C104.342 67.2271 104.859 67.6821 104.834 68.2317L104.859 70.4221C104.836 70.9717 104.383 71.4868 103.832 71.46L103.469 71.4824C102.918 71.4556 102.586 71.0498 102.555 70.5647L102.578 68.1885C102.529 67.9209 102.602 67.6755 102.754 67.499C102.908 67.3179 103.148 67.209 103.428 67.2227ZM103.58 59.48C104.252 59.4995 104.834 60.0115 104.818 60.6824L104.842 62.8728C104.842 63.7861 103.848 64.3958 103.031 64.02C102.65 63.8225 102.506 63.4993 102.441 63.1404C102.406 62.9502 102.395 62.7498 102.383 62.5532L102.375 62.4163C102.4 61.8669 102.359 61.2605 102.439 60.6465C102.344 60.1045 102.854 59.5251 103.58 59.48ZM103.377 51.8813C103.822 51.8538 104.176 51.9653 104.41 52.1917C104.625 52.3977 104.74 52.6987 104.736 53.0762L104.697 55.2097C104.705 56.2444 103.531 56.9258 102.756 56.2429C102.432 55.9585 102.287 55.6021 102.303 54.9314C102.303 54.804 102.299 54.6628 102.293 54.5132C102.256 53.4482 102.207 51.9536 103.377 51.8813ZM104.801 43.9995L104.785 47.4104C104.785 48.3237 103.855 48.99 103.037 48.6143C102.752 48.4929 102.58 48.2856 102.486 47.9832C102.414 47.7549 102.387 47.4724 102.391 47.1321L102.379 45.5859L102.357 43.9067L104.801 43.9995ZM90.9863 53.3167L91.0527 56.1135L69.6348 56.4622L69.5703 53.6653L90.9863 53.3167Z" fill="#FDC354"/>
</svg>
