<svg width="155" height="155" viewBox="0 0 155 155" fill="none" xmlns="http://www.w3.org/2000/svg">
<ellipse cx="77.4223" cy="77.5" rx="77.4223" ry="77.5" fill="white"/>
<path fill-rule="evenodd" clip-rule="evenodd" d="M141.197 77.5C141.197 112.68 112.68 141.198 77.5 141.198C42.3203 141.198 13.8008 112.68 13.8008 77.5C13.8008 42.3201 42.3203 13.8013 77.5 13.8013C112.68 13.8013 141.197 42.3201 141.197 77.5ZM60.0898 108.5V102.767H74.3164V97.0342H37.1582C37.2637 79.9417 37.2637 62.8494 37.2637 45.6506H117.312V97.0342H80.1543V102.767H94.3809V108.5H60.0898ZM42.998 91.3013H111.58V51.2773H42.998V91.3013ZM102.344 81.3218C102.236 81.3218 100.432 81.5342 99.2637 82.4897C98.416 83.2329 98.3086 84.2944 98.2031 85.4624L55.9492 85.25C56.375 84.1882 55.9492 83.0205 55.207 82.2773C54.25 81.428 53.4023 81.2158 52.0215 81.3218L52.127 59.9829C52.0215 59.9829 53.084 59.8767 53.5078 59.7705C54.9941 59.4519 55.7363 58.3904 56.4805 56.6917C56.6934 56.2671 56.6934 55.8425 56.7988 55.5239L98.3086 55.7363C98.627 58.2842 100.113 59.5581 102.449 59.8767L102.344 81.3218ZM62.4258 68.7944V71.0239L70.2812 70.8115V68.582L62.4258 68.7944ZM62.4258 64.3354V66.5649L79.3066 66.2466V64.0171L62.4258 64.3354ZM88.2227 59.1335C88.2227 59.7705 88.3301 60.0891 88.7539 60.3013C89.3906 60.6199 90.1348 60.0891 90.1348 59.3459V56.5854H88.2227V59.1335ZM88.2734 65.9822C88.3164 66.135 88.3965 66.2551 88.543 66.3528C89.1797 66.7773 90.0293 66.2466 90.1348 65.5034V63.8047C90.1348 63.1677 89.709 62.8494 89.0723 62.8494C88.0117 62.9553 88.2227 64.4417 88.2227 65.291C88.2227 65.5776 88.2227 65.8025 88.2734 65.9822ZM88.252 72.1628C88.3301 72.311 88.4531 72.4321 88.6484 72.5103C89.2852 72.8286 90.1348 72.4041 90.0293 71.5547V69.8562C90.0293 69.3252 89.6035 68.9006 89.0723 68.9006C88.7637 68.9006 88.4902 69.0447 88.3164 69.2703C88.1914 69.4316 88.1172 69.6348 88.1172 69.8562V71.2363C88.1172 71.572 88.1172 71.9077 88.252 72.1628ZM88.9668 78.3494H89.2852C89.709 78.3494 90.1348 77.9246 90.1348 77.5V75.8013C90.1348 75.5503 89.9863 75.2993 89.7773 75.136C89.6328 75.0229 89.459 74.9519 89.2852 74.9519H88.9668C88.543 74.9519 88.2227 75.2705 88.2227 75.6951V77.6062C88.2227 78.0308 88.543 78.3494 88.9668 78.3494ZM88.2227 81.3218C87.9043 82.2773 88.1172 84.5068 88.1172 84.5068H90.1348V81.5342C90.1348 80.791 89.1797 80.2603 88.543 80.791C88.3301 80.8972 88.2227 81.1096 88.2227 81.3218Z" fill="#FFB628" fill-opacity="0.79"/>
</svg>
