<svg width="20" height="16" viewBox="0 0 20 16" fill="none" xmlns="http://www.w3.org/2000/svg">
<path d="M19.4737 4.46617C19.2528 4.67493 19.0318 4.88369 18.8171 5.09878C18.6024 5.31387 18.4004 5.54161 18.1731 5.78833C15.8686 3.5552 13.16 2.37854 9.99058 2.37854C6.83374 2.37854 4.13779 3.5552 1.89644 5.72507C1.44817 5.28224 1.01883 4.85206 0.526367 4.35862C1.20825 3.82723 1.87118 3.22624 2.60988 2.73281C7.86918 -0.759218 14.6501 -0.151909 19.2338 4.20047C19.3096 4.27006 19.3917 4.33332 19.4737 4.39658C19.4737 4.42188 19.4737 4.44086 19.4737 4.46617Z" fill="#F4F2F6"/>
<path d="M9.68731 15.4735C9.60524 15.4356 9.52316 15.3913 9.43477 15.3533C8.76551 15.0687 8.39301 14.3665 8.53191 13.6516C8.67081 12.9431 9.29586 12.4307 10.0219 12.4307C10.7417 12.437 11.3668 12.9557 11.4993 13.6643C11.6319 14.3728 11.2468 15.075 10.5712 15.3533C10.4828 15.3913 10.4008 15.4292 10.3124 15.4672C10.104 15.4735 9.89566 15.4735 9.68731 15.4735Z" fill="#F4F2F6"/>
<path d="M4.5606 8.40099C4.11232 7.95816 3.68299 7.53431 3.25366 7.10413C6.51784 3.5615 12.8505 3.09336 16.7397 7.06617C16.304 7.49635 15.8621 7.92653 15.4138 8.36936C13.9364 6.9523 12.1244 6.15521 9.99036 6.16154C7.86265 6.16786 6.05694 6.95863 4.5606 8.40099Z" fill="#F4F2F6"/>
<path d="M14.1069 9.76737C13.6586 10.2102 13.2293 10.6404 12.8 11.0642C11.1142 9.47004 8.68343 9.64085 7.22497 11.0579C6.79564 10.6277 6.36631 10.2039 5.93066 9.7737C7.66061 7.74301 11.6319 7.23059 14.1069 9.76737Z" fill="#F4F2F6"/>
</svg>
