<svg width="50" height="50" viewBox="0 0 50 50" fill="none" xmlns="http://www.w3.org/2000/svg">
<path fill-rule="evenodd" clip-rule="evenodd" d="M4.51465 0H45.4854C47.9683 0 50 2.04547 50 4.54547V45.4545C50 47.9545 47.9683 50 45.4854 50H4.51465C2.03174 50 0 47.9545 0 45.4545V4.54547C0 2.04547 2.03174 0 4.51465 0ZM38.6006 6.25C37.3589 6.25 36.3433 7.27271 36.3433 8.52271V13.7059H44.9775V8.52271C44.9775 7.27271 43.9614 6.25 42.7202 6.25H38.6006ZM44.9775 14.7059H36.3433V29.5455C36.3433 30.7955 37.3589 31.8182 38.6006 31.8182H42.7202C43.9614 31.8182 44.9775 30.7955 44.9775 29.5455V14.7059ZM13.3745 13.7059V8.75C13.3745 7.38635 12.2461 6.25 10.8916 6.25H7.22363C5.86914 6.25 4.74023 7.38635 4.74023 8.75V13.7059H13.3745ZM4.74023 14.7059H13.3745V29.375C13.3745 30.7386 12.2461 31.875 10.8916 31.875H7.22363C5.86914 31.875 4.74023 30.7386 4.74023 29.375V14.7059ZM44.8081 49.2045C47.1782 49.2045 49.1533 47.2727 49.1533 44.8295V36.7045H0.84668V44.8295C0.84668 47.2159 2.76514 49.2045 5.19189 49.2045H44.8081Z" fill="#FFA800"/>
</svg>
