<svg width="50" height="50" viewBox="0 0 50 50" fill="none" xmlns="http://www.w3.org/2000/svg">
<path fill-rule="evenodd" clip-rule="evenodd" d="M45.4854 0H4.51465C2.03174 0 0 2.0293 0 4.50964V45.4904C0 47.9707 2.03174 50 4.51465 50H17.6475H18.6475H45.4854C47.9683 50 50 47.9707 50 45.4904V4.50964C50 2.0293 47.9683 0 45.4854 0ZM18.6475 47.1815H35.1582C36.3994 47.1815 37.4155 46.1669 37.4155 44.9268H37.3589V40.868C37.3589 39.6279 36.3433 38.6133 35.1016 38.6133H18.6475V47.1815ZM17.6475 38.6133H14.8418C13.6006 38.6133 12.5845 39.6279 12.5845 40.868V44.9268C12.5845 46.1669 13.6006 47.1815 14.8418 47.1815H17.6475V38.6133ZM6.60254 29.0868C5.64355 29.0868 4.85352 28.2976 4.85352 27.3394V11.7646H13.4312V27.3394C13.4312 28.2976 12.6411 29.0868 11.6816 29.0868H6.60254ZM4.85352 6.08789V10.7646H13.4312V6.08789C13.4312 5.12964 12.6411 4.34045 11.6816 4.34045H6.60254C5.64355 4.34045 4.85352 5.12964 4.85352 6.08789ZM36.0044 27.283V11.7646H44.6387V27.283C44.6387 28.2976 43.7925 29.1432 42.7764 29.1432H37.8667C36.8511 29.1432 36.0044 28.2976 36.0044 27.283ZM36.0044 10.7646H44.6387V6.14429C44.6387 5.12964 43.7925 4.28406 42.7764 4.28406H37.8667C36.8511 4.28406 36.0044 5.12964 36.0044 6.14429V10.7646Z" fill="#FFA800"/>
</svg>
